<svg width="16" height="16" viewBox="0 0 16 16" fill="none" xmlns="http://www.w3.org/2000/svg">
<path d="M15.8914 7.7047C15.75 7.51535 12.3364 3.09367 8.00008 3.09367C7.5884 3.09458 7.1777 3.13387 6.77332 3.21102C6.70326 3.22264 6.63623 3.24814 6.57616 3.28602C6.51609 3.3239 6.46419 3.37339 6.4235 3.43159C6.38281 3.4898 6.35415 3.55554 6.33921 3.62497C6.32427 3.69439 6.32334 3.7661 6.33648 3.83589C6.34962 3.90568 6.37657 3.97214 6.41574 4.03138C6.45491 4.09062 6.50551 4.14143 6.56458 4.18085C6.62365 4.22027 6.69 4.2475 6.75973 4.26093C6.82947 4.27437 6.90118 4.27375 6.97067 4.2591C7.31 4.19436 7.65463 4.16133 8.00008 4.16042C11.1737 4.16042 13.9285 7.04598 14.7766 8.02739C14.2304 8.65904 13.6318 9.24339 12.9871 9.77419C12.9327 9.81855 12.8875 9.87324 12.8543 9.9351C12.821 9.99696 12.8003 10.0648 12.7933 10.1347C12.7863 10.2046 12.7932 10.2751 12.8136 10.3424C12.834 10.4096 12.8674 10.4721 12.912 10.5264C12.9566 10.5806 13.0115 10.6256 13.0735 10.6586C13.1355 10.6915 13.2034 10.712 13.2733 10.7186C13.3432 10.7253 13.4138 10.7181 13.4809 10.6975C13.5481 10.6768 13.6105 10.6431 13.6645 10.5983C14.4841 9.92961 15.2306 9.17601 15.8914 8.35008C15.9619 8.25728 16 8.14394 16 8.02739C16 7.91084 15.9619 7.7975 15.8914 7.7047Z" fill="#6A6A6A"/>
<path d="M12.3738 10.7716L10.0269 8.42473L7.60272 6.00054L5.51723 3.91505L2.73301 1.13083C2.63187 1.0311 2.49525 0.975637 2.35321 0.976637C2.21117 0.977637 2.07535 1.03502 1.97562 1.13616C1.87589 1.23731 1.82043 1.37393 1.82143 1.51597C1.82243 1.658 1.87981 1.79383 1.98095 1.89356L4.24513 4.15773C2.65736 5.07194 1.25449 6.27492 0.10881 7.70467C0.0382976 7.79747 0.00012207 7.91081 0.00012207 8.02736C0.00012207 8.14391 0.0382976 8.25725 0.10881 8.35005C0.250154 8.5394 3.66375 12.9611 8.00008 12.9611C9.38191 12.9292 10.7311 12.5346 11.9124 11.817L14.1339 14.0465C14.234 14.1466 14.3697 14.2028 14.5113 14.2028C14.6528 14.2028 14.7885 14.1466 14.8886 14.0465C14.9887 13.9464 15.0449 13.8107 15.0449 13.6691C15.0449 13.5276 14.9887 13.3918 14.8886 13.2918L12.3738 10.7716ZM7.15202 7.05662L8.97349 8.87809C8.85706 9.01094 8.7146 9.11848 8.55492 9.19404C8.39525 9.26961 8.22177 9.31159 8.04521 9.3174C7.86866 9.32321 7.69279 9.29271 7.5285 9.2278C7.3642 9.16289 7.21498 9.06495 7.09007 8.94004C6.96516 8.81513 6.86722 8.66591 6.80231 8.50162C6.7374 8.33732 6.70691 8.16146 6.71271 7.9849C6.71852 7.80834 6.76051 7.63486 6.83607 7.47519C6.91163 7.31552 7.01917 7.17305 7.15202 7.05662ZM8.00008 11.8943C4.82651 11.8943 2.07163 9.00877 1.22356 8.02736C2.2925 6.77203 3.58346 5.72426 5.03186 4.93646L6.39996 6.3019C6.16222 6.5157 5.97051 6.77568 5.83652 7.06599C5.70253 7.3563 5.62906 7.67086 5.62059 7.99048C5.61213 8.31011 5.66884 8.62811 5.78728 8.92511C5.90572 9.2221 6.0834 9.49187 6.30949 9.71796C6.53558 9.94405 6.80534 10.1217 7.10234 10.2402C7.39933 10.3586 7.71733 10.4153 8.03696 10.4069C8.35659 10.3984 8.67114 10.3249 8.96145 10.1909C9.25176 10.0569 9.51175 9.86522 9.72555 9.62748L11.131 11.0329C10.1743 11.5737 9.09876 11.8696 8.00008 11.8943Z" fill="#6A6A6A"/>
</svg>
