<svg width="178" height="40" viewBox="0 0 178 40" fill="none" xmlns="http://www.w3.org/2000/svg">
<path d="M62.9459 13.9466V32.6667H58.3549V21.44L54.1397 32.6667H50.4346L46.1926 21.4133V32.6667H41.6016V13.9466H47.0249L52.314 26.9067L57.5494 13.9466H62.9459Z" fill="#15111E"/>
<path d="M65.3346 25.2C65.3346 23.6711 65.621 22.3289 66.1937 21.1733C66.7844 20.0178 67.5809 19.1289 68.5832 18.5066C69.5855 17.8844 70.7042 17.5733 71.9392 17.5733C72.9953 17.5733 73.9171 17.7866 74.7046 18.2133C75.5101 18.64 76.1276 19.2 76.5571 19.8933V17.7866H81.1482V32.6667H76.5571V30.56C76.1097 31.2533 75.4832 31.8133 74.6778 32.24C73.8902 32.6667 72.9684 32.88 71.9124 32.88C70.6953 32.88 69.5855 32.5689 68.5832 31.9467C67.5809 31.3067 66.7844 30.4089 66.1937 29.2533C65.621 28.08 65.3346 26.7289 65.3346 25.2ZM76.5571 25.2267C76.5571 24.0889 76.235 23.1911 75.5906 22.5333C74.9641 21.8755 74.1945 21.5466 73.2817 21.5466C72.3688 21.5466 71.5902 21.8755 70.9459 22.5333C70.3194 23.1733 70.0062 24.0622 70.0062 25.2C70.0062 26.3378 70.3194 27.2444 70.9459 27.92C71.5902 28.5778 72.3688 28.9067 73.2817 28.9067C74.1945 28.9067 74.9641 28.5778 75.5906 27.92C76.235 27.2622 76.5571 26.3644 76.5571 25.2267Z" fill="#15111E"/>
<path d="M90.1614 17.5733C91.2175 17.5733 92.1393 17.7866 92.9268 18.2133C93.7323 18.64 94.3498 19.2 94.7793 19.8933V17.7866H99.3704V32.64C99.3704 34.0089 99.093 35.2444 98.5381 36.3467C98.0011 37.4667 97.1688 38.3556 96.0412 39.0133C94.9315 39.6711 93.5443 40 91.8797 40C89.6603 40 87.8614 39.4755 86.4832 38.4267C85.105 37.3955 84.3175 35.9911 84.1206 34.2133H88.6579C88.8011 34.7822 89.1412 35.2267 89.6782 35.5467C90.2151 35.8844 90.8774 36.0533 91.6649 36.0533C92.6136 36.0533 93.3653 35.7778 93.9202 35.2267C94.493 34.6933 94.7793 33.8311 94.7793 32.64V30.5333C94.3319 31.2267 93.7144 31.7955 92.9268 32.24C92.1393 32.6667 91.2175 32.88 90.1614 32.88C88.9264 32.88 87.8077 32.5689 86.8054 31.9467C85.8031 31.3067 85.0066 30.4089 84.4159 29.2533C83.8432 28.08 83.5568 26.7289 83.5568 25.2C83.5568 23.6711 83.8432 22.3289 84.4159 21.1733C85.0066 20.0178 85.8031 19.1289 86.8054 18.5066C87.8077 17.8844 88.9264 17.5733 90.1614 17.5733ZM94.7793 25.2267C94.7793 24.0889 94.4572 23.1911 93.8128 22.5333C93.1863 21.8755 92.4167 21.5466 91.5039 21.5466C90.591 21.5466 89.8124 21.8755 89.1681 22.5333C88.5416 23.1733 88.2284 24.0622 88.2284 25.2C88.2284 26.3378 88.5416 27.2444 89.1681 27.92C89.8124 28.5778 90.591 28.9067 91.5039 28.9067C92.4167 28.9067 93.1863 28.5778 93.8128 27.92C94.4572 27.2622 94.7793 26.3644 94.7793 25.2267Z" fill="#15111E"/>
<path d="M105.001 16.24C104.195 16.24 103.533 16.0089 103.014 15.5466C102.513 15.0666 102.262 14.48 102.262 13.7866C102.262 13.0755 102.513 12.4889 103.014 12.0266C103.533 11.5466 104.195 11.3066 105.001 11.3066C105.788 11.3066 106.433 11.5466 106.934 12.0266C107.453 12.4889 107.712 13.0755 107.712 13.7866C107.712 14.48 107.453 15.0666 106.934 15.5466C106.433 16.0089 105.788 16.24 105.001 16.24ZM107.283 17.7866V32.6667H102.692V17.7866H107.283Z" fill="#15111E"/>
<path d="M109.831 23.28C109.831 21.4311 110.234 19.7866 111.04 18.3466C111.845 16.8889 112.964 15.76 114.396 14.96C115.845 14.1422 117.483 13.7333 119.309 13.7333C121.546 13.7333 123.461 14.32 125.054 15.4933C126.647 16.6666 127.712 18.2666 128.249 20.2933H123.202C122.826 19.5111 122.289 18.9155 121.591 18.5066C120.911 18.0978 120.132 17.8933 119.255 17.8933C117.841 17.8933 116.696 18.3822 115.819 19.36C114.941 20.3378 114.503 21.6444 114.503 23.28C114.503 24.9155 114.941 26.2222 115.819 27.2C116.696 28.1778 117.841 28.6667 119.255 28.6667C120.132 28.6667 120.911 28.4622 121.591 28.0533C122.289 27.6444 122.826 27.0489 123.202 26.2667H128.249C127.712 28.2933 126.647 29.8933 125.054 31.0667C123.461 32.2222 121.546 32.8 119.309 32.8C117.483 32.8 115.845 32.4 114.396 31.6C112.964 30.7822 111.845 29.6533 111.04 28.2133C110.234 26.7733 109.831 25.1289 109.831 23.28Z" fill="#15111E"/>
<path d="M135.652 12.9333V32.6667H131.061V12.9333H135.652Z" fill="#15111E"/>
<path d="M141.288 16.24C140.482 16.24 139.82 16.0089 139.301 15.5466C138.8 15.0666 138.549 14.48 138.549 13.7866C138.549 13.0755 138.8 12.4889 139.301 12.0266C139.82 11.5466 140.482 11.3066 141.288 11.3066C142.075 11.3066 142.72 11.5466 143.221 12.0266C143.74 12.4889 144 13.0755 144 13.7866C144 14.48 143.74 15.0666 143.221 15.5466C142.72 16.0089 142.075 16.24 141.288 16.24ZM143.57 17.7866V32.6667H138.979V17.7866H143.57Z" fill="#15111E"/>
<path d="M145.984 25.2267C145.984 23.68 146.297 22.3289 146.924 21.1733C147.568 20.0178 148.454 19.1289 149.582 18.5066C150.727 17.8844 152.034 17.5733 153.502 17.5733C155.381 17.5733 156.947 18.0622 158.2 19.04C159.471 20.0178 160.303 21.3955 160.697 23.1733H155.811C155.399 22.0355 154.602 21.4666 153.421 21.4666C152.58 21.4666 151.909 21.7955 151.408 22.4533C150.906 23.0933 150.656 24.0178 150.656 25.2267C150.656 26.4355 150.906 27.3689 151.408 28.0267C151.909 28.6667 152.58 28.9867 153.421 28.9867C154.602 28.9867 155.399 28.4178 155.811 27.28H160.697C160.303 29.0222 159.471 30.3911 158.2 31.3867C156.929 32.3822 155.363 32.88 153.502 32.88C152.034 32.88 150.727 32.5689 149.582 31.9467C148.454 31.3244 147.568 30.4355 146.924 29.28C146.297 28.1244 145.984 26.7733 145.984 25.2267Z" fill="#15111E"/>
<path d="M172.308 32.6667L167.744 26.4267V32.6667H163.153V12.9333H167.744V23.84L172.281 17.7866H177.946L171.717 25.2533L178 32.6667H172.308Z" fill="#15111E"/>
<rect width="10.7393" height="10.6667" rx="5.33334" fill="#EB9CFF"/>
<rect y="22.0427" width="7.9234" height="12.2338" rx="3.9617" fill="url(#paint0_linear_331_923)"/>
<rect x="11.5286" y="12.4244" width="7.9234" height="21.852" rx="3.9617" fill="url(#paint1_linear_331_923)"/>
<rect x="23.0571" y="3.31705" width="7.9234" height="30.9592" rx="3.9617" fill="url(#paint2_linear_331_923)"/>
<defs>
<linearGradient id="paint0_linear_331_923" x1="3.9617" y1="22.0427" x2="3.9617" y2="34.2765" gradientUnits="userSpaceOnUse">
<stop stop-color="#F799FF"/>
<stop offset="1" stop-color="#497CFF"/>
</linearGradient>
<linearGradient id="paint1_linear_331_923" x1="15.4903" y1="12.4244" x2="15.4903" y2="34.2764" gradientUnits="userSpaceOnUse">
<stop stop-color="#F799FF"/>
<stop offset="1" stop-color="#497CFF"/>
</linearGradient>
<linearGradient id="paint2_linear_331_923" x1="27.0188" y1="3.31705" x2="27.0188" y2="34.2763" gradientUnits="userSpaceOnUse">
<stop stop-color="#F799FF"/>
<stop offset="1" stop-color="#497CFF"/>
</linearGradient>
</defs>
</svg>
