<svg width="166" height="128" viewBox="0 0 166 128" fill="none" xmlns="http://www.w3.org/2000/svg">
<path d="M31.8968 127.087C30.9796 127.21 30.1798 127.298 29.525 127.359C36.6019 122.347 37.7188 113.874 37.4447 107.352L37.4277 106.948L37.0281 106.88C29.2978 105.579 22.5265 103.131 18.2369 99.1623L18.2328 99.1586C14.5392 95.8167 11.1125 90.2206 8.27216 83.3663C5.43603 76.5221 3.20213 68.4664 1.87061 60.2477C0.538963 52.0283 0.112448 43.6621 0.880816 36.1956C1.64975 28.7236 3.61053 22.1991 7.01291 17.6161C13.2154 9.68269 22.8323 5.14872 33.1383 2.76592C43.4372 0.384767 54.3683 0.165382 63.1247 0.81561L133.407 9.08967C146.976 12.8244 156.602 23.2843 161.59 36.0876C166.584 48.9061 166.909 64.029 161.901 76.9792L161.898 76.986L161.896 76.993C156.906 91.1174 146.392 98.799 133.949 102.959C121.486 107.126 107.124 107.745 94.5281 107.745C90.7065 107.745 86.0802 107.927 81.0283 108.127L80.9502 108.13C75.9158 108.329 70.4557 108.544 64.9242 108.616L64.6379 108.62L64.4962 108.869C59.4605 117.712 50.2657 122.38 42.2566 124.835C38.2596 126.059 34.5786 126.726 31.8968 127.087Z" fill="white" stroke="#AAAAAA"/>
</svg>
